<mxfile host="app.diagrams.net" agent="Mozilla/5.0 (Macintosh; Intel Mac OS X 10.15; rv:137.0) Gecko/20100101 Firefox/137.0" version="26.1.1">
  <diagram name="Page-1" id="qiFr6YRRUW-vIKiifzZw">
    <mxGraphModel dx="1787" dy="529" grid="1" gridSize="10" guides="1" tooltips="1" connect="1" arrows="1" fold="1" page="1" pageScale="1" pageWidth="850" pageHeight="1100" math="0" shadow="0">
      <root>
        <mxCell id="0" />
        <mxCell id="1" parent="0" />
        <mxCell id="GsmYgXvDdKW-WxntA-Je-4" style="edgeStyle=orthogonalEdgeStyle;rounded=0;orthogonalLoop=1;jettySize=auto;html=1;fillColor=#f8cecc;strokeColor=#b85450;strokeWidth=2;" edge="1" parent="1" source="GsmYgXvDdKW-WxntA-Je-1" target="GsmYgXvDdKW-WxntA-Je-3">
          <mxGeometry relative="1" as="geometry">
            <Array as="points">
              <mxPoint x="14" y="87" />
            </Array>
          </mxGeometry>
        </mxCell>
        <mxCell id="GsmYgXvDdKW-WxntA-Je-8" value="data read" style="edgeLabel;html=1;align=center;verticalAlign=middle;resizable=0;points=[];" vertex="1" connectable="0" parent="GsmYgXvDdKW-WxntA-Je-4">
          <mxGeometry x="0.0544" y="-2" relative="1" as="geometry">
            <mxPoint as="offset" />
          </mxGeometry>
        </mxCell>
        <mxCell id="GsmYgXvDdKW-WxntA-Je-1" value="CMS" style="image;aspect=fixed;html=1;points=[];align=center;fontSize=12;image=img/lib/azure2/databases/Azure_Database_PostgreSQL_Server.svg;" vertex="1" parent="1">
          <mxGeometry x="-10" y="150" width="48" height="64" as="geometry" />
        </mxCell>
        <mxCell id="GsmYgXvDdKW-WxntA-Je-6" style="edgeStyle=orthogonalEdgeStyle;rounded=0;orthogonalLoop=1;jettySize=auto;html=1;fillColor=#f8cecc;strokeColor=#b85450;labelPosition=right;verticalLabelPosition=middle;align=left;verticalAlign=middle;strokeWidth=2;" edge="1" parent="1" source="GsmYgXvDdKW-WxntA-Je-3" target="GsmYgXvDdKW-WxntA-Je-5">
          <mxGeometry relative="1" as="geometry">
            <Array as="points">
              <mxPoint x="280" y="130" />
              <mxPoint x="280" y="130" />
            </Array>
          </mxGeometry>
        </mxCell>
        <mxCell id="GsmYgXvDdKW-WxntA-Je-14" value="data" style="edgeLabel;html=1;align=center;verticalAlign=middle;resizable=0;points=[];textDirection=vertical-lr;" vertex="1" connectable="0" parent="GsmYgXvDdKW-WxntA-Je-6">
          <mxGeometry x="-0.068" relative="1" as="geometry">
            <mxPoint x="13" as="offset" />
          </mxGeometry>
        </mxCell>
        <mxCell id="GsmYgXvDdKW-WxntA-Je-13" style="edgeStyle=orthogonalEdgeStyle;rounded=0;orthogonalLoop=1;jettySize=auto;html=1;labelPosition=left;verticalLabelPosition=middle;align=right;verticalAlign=middle;fillColor=#d5e8d4;strokeColor=#82b366;strokeWidth=2;textDirection=vertical-rl;" edge="1" parent="1" source="GsmYgXvDdKW-WxntA-Je-3" target="GsmYgXvDdKW-WxntA-Je-5">
          <mxGeometry relative="1" as="geometry">
            <Array as="points">
              <mxPoint x="270" y="140" />
              <mxPoint x="270" y="140" />
            </Array>
          </mxGeometry>
        </mxCell>
        <mxCell id="GsmYgXvDdKW-WxntA-Je-15" value="flow control" style="edgeLabel;html=1;align=center;verticalAlign=middle;resizable=0;points=[];textDirection=vertical-rl;" vertex="1" connectable="0" parent="GsmYgXvDdKW-WxntA-Je-13">
          <mxGeometry x="-0.0549" relative="1" as="geometry">
            <mxPoint x="-20" y="-3" as="offset" />
          </mxGeometry>
        </mxCell>
        <mxCell id="GsmYgXvDdKW-WxntA-Je-3" value="Meltano data extractor" style="shadow=0;dashed=0;html=1;strokeColor=none;fillColor=#4495D1;labelPosition=center;verticalLabelPosition=top;verticalAlign=bottom;align=center;outlineConnect=0;shape=mxgraph.veeam.2d.service;" vertex="1" parent="1">
          <mxGeometry x="260" y="70" width="33.2" height="33.2" as="geometry" />
        </mxCell>
        <mxCell id="GsmYgXvDdKW-WxntA-Je-7" style="edgeStyle=orthogonalEdgeStyle;rounded=0;orthogonalLoop=1;jettySize=auto;html=1;fillColor=#f8cecc;strokeColor=#b85450;strokeWidth=2;" edge="1" parent="1" source="GsmYgXvDdKW-WxntA-Je-5" target="GsmYgXvDdKW-WxntA-Je-2">
          <mxGeometry relative="1" as="geometry" />
        </mxCell>
        <mxCell id="GsmYgXvDdKW-WxntA-Je-9" value="data write" style="edgeLabel;html=1;align=center;verticalAlign=middle;resizable=0;points=[];" vertex="1" connectable="0" parent="GsmYgXvDdKW-WxntA-Je-7">
          <mxGeometry x="-0.0701" y="-1" relative="1" as="geometry">
            <mxPoint as="offset" />
          </mxGeometry>
        </mxCell>
        <mxCell id="GsmYgXvDdKW-WxntA-Je-12" style="edgeStyle=orthogonalEdgeStyle;rounded=0;orthogonalLoop=1;jettySize=auto;html=1;fillColor=#d5e8d4;strokeColor=#82b366;strokeWidth=2;" edge="1" parent="1" source="GsmYgXvDdKW-WxntA-Je-5" target="GsmYgXvDdKW-WxntA-Je-10">
          <mxGeometry relative="1" as="geometry" />
        </mxCell>
        <mxCell id="GsmYgXvDdKW-WxntA-Je-16" value="flow control" style="edgeLabel;html=1;align=center;verticalAlign=middle;resizable=0;points=[];" vertex="1" connectable="0" parent="GsmYgXvDdKW-WxntA-Je-12">
          <mxGeometry x="-0.265" relative="1" as="geometry">
            <mxPoint as="offset" />
          </mxGeometry>
        </mxCell>
        <mxCell id="GsmYgXvDdKW-WxntA-Je-5" value="Meltano data loader" style="shadow=0;dashed=0;html=1;strokeColor=none;fillColor=#4495D1;labelPosition=left;verticalLabelPosition=middle;verticalAlign=middle;align=right;outlineConnect=0;shape=mxgraph.veeam.2d.service;" vertex="1" parent="1">
          <mxGeometry x="260" y="205.63" width="33.2" height="33.2" as="geometry" />
        </mxCell>
        <mxCell id="GsmYgXvDdKW-WxntA-Je-17" style="edgeStyle=orthogonalEdgeStyle;rounded=0;orthogonalLoop=1;jettySize=auto;html=1;fillColor=#d5e8d4;strokeColor=#82b366;strokeWidth=2;" edge="1" parent="1" source="GsmYgXvDdKW-WxntA-Je-10" target="GsmYgXvDdKW-WxntA-Je-11">
          <mxGeometry relative="1" as="geometry" />
        </mxCell>
        <mxCell id="GsmYgXvDdKW-WxntA-Je-18" value="flow control" style="edgeLabel;html=1;align=center;verticalAlign=middle;resizable=0;points=[];" vertex="1" connectable="0" parent="GsmYgXvDdKW-WxntA-Je-17">
          <mxGeometry x="-0.1183" y="-1" relative="1" as="geometry">
            <mxPoint as="offset" />
          </mxGeometry>
        </mxCell>
        <mxCell id="GsmYgXvDdKW-WxntA-Je-10" value="&lt;div&gt;Meltano data transformer&lt;/div&gt;" style="shadow=0;dashed=0;html=1;strokeColor=none;fillColor=#4495D1;labelPosition=center;verticalLabelPosition=bottom;verticalAlign=top;align=center;outlineConnect=0;shape=mxgraph.veeam.2d.service;" vertex="1" parent="1">
          <mxGeometry x="260" y="300.23" width="33.2" height="33.2" as="geometry" />
        </mxCell>
        <mxCell id="GsmYgXvDdKW-WxntA-Je-19" style="edgeStyle=orthogonalEdgeStyle;rounded=0;orthogonalLoop=1;jettySize=auto;html=1;fillColor=#dae8fc;strokeColor=#6c8ebf;strokeWidth=2;" edge="1" parent="1" source="GsmYgXvDdKW-WxntA-Je-11" target="GsmYgXvDdKW-WxntA-Je-2">
          <mxGeometry relative="1" as="geometry" />
        </mxCell>
        <mxCell id="GsmYgXvDdKW-WxntA-Je-20" value="transform data" style="edgeLabel;html=1;align=center;verticalAlign=middle;resizable=0;points=[];" vertex="1" connectable="0" parent="GsmYgXvDdKW-WxntA-Je-19">
          <mxGeometry x="0.0937" y="-1" relative="1" as="geometry">
            <mxPoint x="19" y="-1" as="offset" />
          </mxGeometry>
        </mxCell>
        <mxCell id="GsmYgXvDdKW-WxntA-Je-11" value="dbt-core" style="shadow=0;dashed=0;html=1;strokeColor=none;fillColor=#4495D1;labelPosition=center;verticalLabelPosition=bottom;verticalAlign=top;align=center;outlineConnect=0;shape=mxgraph.veeam.2d.service;" vertex="1" parent="1">
          <mxGeometry x="430" y="300.23" width="33.2" height="33.2" as="geometry" />
        </mxCell>
        <mxCell id="GsmYgXvDdKW-WxntA-Je-21" value="Docker container" style="swimlane;whiteSpace=wrap;html=1;" vertex="1" parent="1">
          <mxGeometry x="750" y="20" width="150" height="160" as="geometry" />
        </mxCell>
        <mxCell id="GsmYgXvDdKW-WxntA-Je-26" value="Metabase" style="points=[];aspect=fixed;html=1;align=center;shadow=0;dashed=0;fillColor=#FF6A00;strokeColor=none;shape=mxgraph.alibaba_cloud.quickbi;labelPosition=center;verticalLabelPosition=top;verticalAlign=bottom;" vertex="1" parent="GsmYgXvDdKW-WxntA-Je-21">
          <mxGeometry x="51.150000000000006" y="56" width="47.7" height="48" as="geometry" />
        </mxCell>
        <mxCell id="GsmYgXvDdKW-WxntA-Je-23" value="Docker container" style="swimlane;whiteSpace=wrap;html=1;" vertex="1" parent="1">
          <mxGeometry x="-60" y="20" width="140" height="380" as="geometry" />
        </mxCell>
        <mxCell id="GsmYgXvDdKW-WxntA-Je-24" value="Docker container" style="swimlane;whiteSpace=wrap;html=1;" vertex="1" parent="1">
          <mxGeometry x="120" y="20" width="400" height="380" as="geometry" />
        </mxCell>
        <mxCell id="GsmYgXvDdKW-WxntA-Je-29" value="Prefect flow" style="shadow=0;dashed=0;html=1;strokeColor=none;fillColor=#4495D1;labelPosition=center;verticalLabelPosition=top;verticalAlign=bottom;align=center;outlineConnect=0;shape=mxgraph.veeam.2d.service;" vertex="1" parent="GsmYgXvDdKW-WxntA-Je-24">
          <mxGeometry x="305" y="50" width="33.2" height="33.2" as="geometry" />
        </mxCell>
        <mxCell id="GsmYgXvDdKW-WxntA-Je-25" value="Docker container" style="swimlane;whiteSpace=wrap;html=1;" vertex="1" parent="1">
          <mxGeometry x="560" y="20" width="150" height="380" as="geometry" />
        </mxCell>
        <mxCell id="GsmYgXvDdKW-WxntA-Je-2" value="DWH" style="image;aspect=fixed;html=1;points=[];align=center;fontSize=12;image=img/lib/azure2/databases/Azure_Database_PostgreSQL_Server.svg;labelPosition=center;verticalLabelPosition=top;verticalAlign=bottom;" vertex="1" parent="GsmYgXvDdKW-WxntA-Je-25">
          <mxGeometry x="51" y="170.23" width="48" height="64" as="geometry" />
        </mxCell>
        <mxCell id="GsmYgXvDdKW-WxntA-Je-27" style="edgeStyle=orthogonalEdgeStyle;rounded=0;orthogonalLoop=1;jettySize=auto;html=1;strokeWidth=2;fillColor=#f8cecc;strokeColor=#b85450;" edge="1" parent="1" source="GsmYgXvDdKW-WxntA-Je-26" target="GsmYgXvDdKW-WxntA-Je-2">
          <mxGeometry relative="1" as="geometry">
            <Array as="points">
              <mxPoint x="825" y="222" />
            </Array>
          </mxGeometry>
        </mxCell>
        <mxCell id="GsmYgXvDdKW-WxntA-Je-28" value="data read" style="edgeLabel;html=1;align=center;verticalAlign=middle;resizable=0;points=[];" vertex="1" connectable="0" parent="GsmYgXvDdKW-WxntA-Je-27">
          <mxGeometry x="-0.0886" y="-2" relative="1" as="geometry">
            <mxPoint as="offset" />
          </mxGeometry>
        </mxCell>
        <mxCell id="GsmYgXvDdKW-WxntA-Je-30" style="edgeStyle=orthogonalEdgeStyle;rounded=0;orthogonalLoop=1;jettySize=auto;html=1;strokeWidth=2;fillColor=#d5e8d4;strokeColor=#82b366;" edge="1" parent="1" source="GsmYgXvDdKW-WxntA-Je-29" target="GsmYgXvDdKW-WxntA-Je-3">
          <mxGeometry relative="1" as="geometry" />
        </mxCell>
        <mxCell id="GsmYgXvDdKW-WxntA-Je-31" value="flow control" style="edgeLabel;html=1;align=center;verticalAlign=middle;resizable=0;points=[];" vertex="1" connectable="0" parent="GsmYgXvDdKW-WxntA-Je-30">
          <mxGeometry x="-0.2622" y="2" relative="1" as="geometry">
            <mxPoint as="offset" />
          </mxGeometry>
        </mxCell>
      </root>
    </mxGraphModel>
  </diagram>
</mxfile>
